<svg height="512pt" viewBox="-79 0 512 512" width="512pt" xmlns="http://www.w3.org/2000/svg"><path d="m317.488281 7.5h-179.996093c-16.566407 0-30 13.433594-30 30v110.007812h-69.996094c-16.566406 0-30 13.433594-30 30v296.992188c0 16.566406 13.433594 30 30 30h179.996094c16.570312 0 30-13.433594 30-30v-110.007812h69.996093c16.570313 0 30-13.433594 30-30v-296.992188c0-16.566406-13.429687-30-30-30zm0 0" fill="#fff9eb"/><path d="m37.496094 326.003906v42.5c0 4.140625 3.359375 7.5 7.5 7.5h86.164062v-50zm0 0" fill="#a4d541"/><path d="m131.160156 276.003906h-86.164062c-4.140625 0-7.5 3.359375-7.5 7.5v42.5h93.664062zm0 0" fill="#c4ea73"/><path d="m131.160156 276.003906v50h86.332032v-42.5c0-4.140625-3.355469-7.5-7.5-7.5zm0 0" fill="#a4d541"/><path d="m131.160156 376.003906h78.832032c4.144531 0 7.5-3.359375 7.5-7.5v-42.5h-86.332032zm0 0" fill="#92c52c"/><path d="m344.003906 10.980469c-7.082031-7.082031-16.5-10.980469-26.519531-10.980469h-179.992187c-10.019532 0-19.4375 3.898438-26.519532 10.980469-7.078125 7.089843-10.980468 16.5-10.980468 26.519531v12.507812h-13.710938c-20.679688 0-37.5 16.824219-37.5 37.5v11.894532l-8.410156-8.410156c-2.929688-2.929688-7.675782-2.929688-10.605469 0-2.929687 2.929687-2.929687 7.675781 0 10.605468l21.210937 21.210938c2.960938 2.960937 7.714844 2.898437 10.609376 0l21.210937-21.210938c2.929687-2.929687 2.929687-7.675781 0-10.605468-2.929687-2.929688-7.675781-2.929688-10.605469 0l-8.410156 8.410156v-11.894532c0-12.40625 10.09375-22.5 22.5-22.5h13.714844v75h-62.496094c-20.679688 0-37.5 16.824219-37.5 37.5v296.992188c0 20.679688 16.820312 37.5 37.5 37.5h179.996094c20.675781 0 37.5-16.820312 37.5-37.5v-12.507812h13.710937c20.679688 0 37.5-16.824219 37.5-37.5v-11.894532l8.410157 8.410156c1.464843 1.464844 3.386718 2.195313 5.304687 2.195313s3.839844-.730469 5.304687-2.195313c2.929688-2.929687 2.929688-7.679687 0-10.605468l-21.214843-21.214844c-1.398438-1.398438-3.320313-2.195312-5.304688-2.195312-1.992187 0-3.910156.804687-5.304687 2.195312l-21.210938 21.214844c-2.929687 2.925781-2.929687 7.675781 0 10.605468 2.929688 2.929688 7.675782 2.929688 10.605469 0l8.410156-8.410156v11.890625c0 12.410157-10.09375 22.5-22.5 22.5h-13.714843v-113.484375h47.496093c4.144531 0 7.5-3.359375 7.5-7.5s-3.355469-7.5-7.5-7.5h-47.496093v-15h47.496093c4.144531 0 7.5-3.359375 7.5-7.5s-3.355469-7.5-7.5-7.5h-47.496093v-45h47.496093c4.144531 0 7.5-3.359375 7.5-7.5s-3.355469-7.5-7.5-7.5h-47.496093v-15h47.496093c4.144531 0 7.5-3.359375 7.5-7.5s-3.355469-7.5-7.5-7.5h-47.496093v-15h47.496093c4.144531 0 7.5-3.359375 7.5-7.5s-3.355469-7.5-7.5-7.5h-48.59375c-4.042969-16.34375-18.828125-28.496094-36.402343-28.496094h-102.5v-102.507812c.023437-12.378906 10.113281-22.480469 22.5-22.5h179.992187c12.390625.019531 22.480469 10.121094 22.5 22.5v296.988281c-.019531 12.390625-10.109375 22.480469-22.5 22.5h-39.992187c-4.140626 0-7.5 3.371094-7.5 7.5 0 4.140625 3.359374 7.5 7.5 7.5h39.992187c10.019531 0 19.4375-3.898437 26.519531-10.976562 7.082032-7.082031 10.980469-16.5 10.980469-26.523438v-296.988281c0-10.019531-3.902344-19.429688-10.980469-26.519531zm-104.011718 166.527343v296.992188c0 12.40625-10.09375 22.5-22.5 22.5h-179.996094c-12.40625 0-22.5-10.09375-22.5-22.5v-296.992188c0-12.40625 10.09375-22.5 22.5-22.5h179.996094c12.40625 0 22.5 10.09375 22.5 22.5zm0 0"/><path d="m152.492188 65.007812h149.996093c4.144531 0 7.5-3.355468 7.5-7.5 0-4.140624-3.355469-7.5-7.5-7.5h-149.996093c-4.140626 0-7.5 3.359376-7.5 7.5 0 4.144532 3.359374 7.5 7.5 7.5zm0 0"/><path d="m309.988281 87.507812c0-4.140624-3.355469-7.5-7.5-7.5h-149.996093c-4.140626 0-7.5 3.359376-7.5 7.5 0 4.144532 3.359374 7.5 7.5 7.5h149.996093c4.144531 0 7.5-3.355468 7.5-7.5zm0 0"/><path d="m152.492188 110.007812c-4.140626 0-7.5 3.359376-7.5 7.5 0 4.144532 3.359374 7.5 7.5 7.5h95c4.144531 0 7.5-3.355468 7.5-7.5 0-4.140624-3.355469-7.5-7.5-7.5zm0 0"/><path d="m97.496094 238.503906c-4.140625 0-7.5 3.359375-7.5 7.5s3.359375 7.5 7.5 7.5h59.996094c4.144531 0 7.5-3.359375 7.5-7.5s-3.355469-7.5-7.5-7.5zm0 0"/><path d="m131.160156 268.503906c-.035156 0-.070312.003906-.105468.003906-10 0-78.832032 0-93.550782 0-4.113281 0-7.511718 3.363282-7.511718 7.492188v100.007812c0 1.972657.8125 3.902344 2.203124 5.300782 1.398438 1.390625 3.328126 2.191406 5.308594 2.191406h93.570313c.027343 0 .058593.003906.085937.003906.03125 0 .058594-.003906.085938-.003906h56.246094c4.132812 0 7.5-3.359375 7.5-7.492188 0-4.128906-3.359376-7.5-7.488282-7.5 0-.007812 0-.007812-.011718-.007812h-48.832032v-35h71.332032v42.507812c0 4.132813 3.359374 7.492188 7.5 7.492188 4.183593 0 7.5-3.40625 7.5-7.492188v-100.007812c0-4.117188-3.371094-7.488281-7.5-7.488281h-86.226563c-.035156-.003907-.070313-.007813-.105469-.007813zm-7.5 99.996094h-78.667968v-85h78.667968v35h-56.167968c-4.128907 0-7.5 3.371094-7.5 7.5 0 4.140625 3.371093 7.5 7.5 7.5h56.167968zm86.332032-50h-71.332032v-35h71.332032zm0 0"/></svg>